<?xml version="1.0" encoding="utf-8"?>
<!-- Generator: Adobe Illustrator 16.0.0, SVG Export Plug-In . SVG Version: 6.00 Build 0)  -->
<!DOCTYPE svg PUBLIC "-//W3C//DTD SVG 1.1//EN" "http://www.w3.org/Graphics/SVG/1.1/DTD/svg11.dtd">
<svg version="1.1" id="Layer_2" xmlns="http://www.w3.org/2000/svg" xmlns:xlink="http://www.w3.org/1999/xlink" x="0px" y="0px"
	 width="697px" height="697px" viewBox="0 0 697 697" enable-background="new 0 0 697 697" xml:space="preserve">
<g>
	<path fill-rule="evenodd" clip-rule="evenodd" fill="#1D5650" stroke="#000000" stroke-miterlimit="10" d="M299.667,436.571
		c0,0-33.696,15.895-49.613,51.661c-6.141,13.801,3.663,40.669,3.663,40.669l12.254-6.267c0,0-8.511-20.17,3.02-32.428
		c3.083-3.278,16.479-7.245,16.479-7.245l-19.499,63.715h144.726l-19.629-74.215c0,0,11.215,0.504,18.584,16.733
		c6.957,15.322,0.029,31.632,0.029,31.632l15.242,7.063c0,0,14.643-25.931,7.332-45.152c-15.379-40.446-49.15-46.166-49.15-46.166
		H299.667z"/>
</g>
<path fill-rule="evenodd" clip-rule="evenodd" fill="#15443E" d="M300.666,436.605h80.547c0,0-26.204,59.253-42.999,58.626
	C322.256,494.637,300.666,436.605,300.666,436.605z M338.697,486.014c14.294,0.532,36.599-49.9,36.599-49.9h-68.557
	C306.739,436.113,325.115,485.507,338.697,486.014z"/>
<path fill-rule="evenodd" clip-rule="evenodd" fill="#FFFFFF" stroke="#000000" stroke-miterlimit="10" d="M408.084,548.343
	l-4.41,3.153c2.854-2.917,4.41-4.819,4.41-4.819H268.342c0,0,0.437,1.201,1.491,3.155l-1.647-1.489v83.196l21.289,6.488
	l8.489-62.796l-1.24-1.118c10.147,4.845,23.658,8.434,41.489,8.617c11.61,0.119,22.34-2.853,31.736-7.127l-0.002,0.003
	l24.425,64.935l25.893-3.044L408.084,548.343z"/>
<path fill-rule="evenodd" clip-rule="evenodd" fill="#E2E2E2" d="M282.935,631.513l6.927-59.975l-4.5-5.167
	c0,0,16.542,8.454,47.167,10.704c36.03,2.647,44-7.537,44-7.537l-0.5,5l22.342,60.967l-4.592,1.938l-23.25-61.805l0.422-0.594
	l0.359-0.578c-5.578,2.703-20.166,8.595-37.844,7.578c-23.906-1.375-33.028-7.099-34.75-7.625c-0.354-0.108-4.588-2.099-4.588-2.099
	l3.275,3.13l-8,59.031L282.935,631.513z"/>
<path fill="#F3CFB7" d="M411.867,547.543c4.564-2.896,12.318-19.499,12.318-19.499s-11.561-8.349-15.793-8.009
	c-8.771,0.701-29.88,14.752-26.687,22.95C384.474,550.091,405.428,551.627,411.867,547.543z"/>
<path fill="#F3CFB7" d="M264.712,548.783c-4.565-2.896-11.111-19.259-11.111-19.259s10.353-8.589,14.585-8.249
	c8.771,0.701,29.882,14.752,26.688,22.95C292.105,551.331,271.152,552.867,264.712,548.783z"/>
<path fill-rule="evenodd" clip-rule="evenodd" fill="#FFFFFF" d="M301.514,436.547h79.574c0,0-25.887,51.538-42.479,50.993
	C322.844,487.021,301.514,436.547,301.514,436.547z M338.189,436.039c14.106-0.28,37.026-1.302,37.026-1.302l-67.701,1.378
	C307.514,436.115,324.786,436.306,338.189,436.039z"/>
<path fill="#1D5650" stroke="#000000" stroke-miterlimit="10" d="M246.013,656.063c12.161,4.554,48.223-1.149,50.019-14.01
	c0.317-2.272-2.516-4.641-6.196-6.718c-2.715-1.532,4.115-13.33,1.403-14.391c-3.479-1.361-19.143-7.293-23.053-2.994
	c-1.73,1.902,1.696,9.441-2.407,10c-11.497,1.565-31.235,7.61-33.434,15.616C231.119,648.029,241.676,654.438,246.013,656.063z"/>
<path fill="#1D5650" stroke="#000000" stroke-miterlimit="10" d="M435.779,659.839c-12.621,3.056-48.222-1.149-50.018-14.01
	c-0.406-2.91-0.57-5.34,4.518-7.752c5.578-2.645-2.09-8.454-0.955-10.959c3.033-6.692,26.872-1.446,29.366-1.156
	c2.346,0.271-0.785,8.351,2.762,8.933c12.01,1.971,26.555,5.6,27.996,12.448C450.402,651.871,440.279,658.749,435.779,659.839z"/>
<path fill-rule="evenodd" clip-rule="evenodd" fill="#33776C" d="M300.666,436.571h80.547c0,0-26.204,52.213-42.999,51.661
	C322.256,487.708,300.666,436.571,300.666,436.571z M338.697,480.109c14.294,0.469,36.599-43.972,36.599-43.972h-68.557
	C306.739,436.138,325.115,479.663,338.697,480.109z"/>
<path fill="#F3CFB7" d="M474.107,351.038c8.057-18.343,12.561-38.601,12.561-59.919c0-82.388-66.787-149.177-149.178-149.177
	c-82.386,0-149.174,66.789-149.174,149.177c0,19.121,3.636,37.381,10.19,54.182c-4.152,0.499-7.182,2.078-8.22,4.709
	c-2.31,5.842,0.001,18.523,12.569,23.49c0.769,0.305,7.547-3.334,8.31-3.072c9.752,15.5,22.272,29.081,36.868,40.047
	c24.918,18.721,55.886,29.819,89.457,29.819c33.944,0,65.223-11.347,90.28-30.444c11.806-8.998,22.229-19.717,30.9-31.78
	c2.828-0.547,7.07,2.62,10.08,1.431c12.568-4.967,19.625-17.751,17.314-23.593C484.734,352.539,480.152,350.889,474.107,351.038z"/>
<path fill-rule="evenodd" clip-rule="evenodd" fill="#DDB69B" d="M474.779,363.575c1.473,3.198-9.543,8.823-2.959,5.79
	c6.584-3.032,10.729-8.083,9.254-11.28c-1.473-3.198-8.004-3.333-14.588-0.3C459.902,360.817,473.305,360.378,474.779,363.575z"/>
<path fill-rule="evenodd" clip-rule="evenodd" fill="#DDB69B" d="M201.102,357.621c-1.473,3.198,9.542,8.823,2.958,5.79
	c-6.584-3.032-10.728-8.083-9.254-11.28c1.473-3.198,8.004-3.333,14.588-0.3C215.978,354.863,202.576,354.424,201.102,357.621z"/>
<g>
	<defs>
		<path id="SVGID_1_" d="M414.139,364.164c8.246-5.583,11.188-12.016,6.476-16.899c-0.45-0.466-0.957-0.904-1.517-1.318
			c-3.773-10.827-13.365-17.968-30.415-17.505c-19.101,0.519-38.944,10.568-37.852,23.396c0.094,1.113,0.344,2.195,0.661,3.261
			c-5.675,4.939-7.21,10.244-3.185,14.417c6.083,6.306,26.145,7.919,43.326,4.497C402.451,373.508,408.475,369.748,414.139,364.164z
			"/>
	</defs>
	<use xlink:href="#SVGID_1_"  overflow="visible" fill-rule="evenodd" clip-rule="evenodd" fill="#DDB69B"/>
	<clipPath id="SVGID_2_">
		<use xlink:href="#SVGID_1_"  overflow="visible"/>
	</clipPath>
</g>
<g>
	<defs>
		<path id="SVGID_3_" d="M278.18,363.957c0.218-0.989,0.391-1.994,0.457-3.028c0.753-11.917-10.027-21.448-23.207-21.931
			c-11.767-0.431-21.301,6.398-23.906,16.456c-0.387,0.386-0.738,0.796-1.047,1.227c-3.25,4.538-1.221,10.515,4.471,15.7
			c3.908,5.188,9.283,10.348,16.749,10.816c11.857,3.178,24.483,0.012,28.68-5.846C283.156,373.477,282.096,368.545,278.18,363.957z
			"/>
	</defs>
	<use xlink:href="#SVGID_3_"  overflow="visible" fill-rule="evenodd" clip-rule="evenodd" fill="#DDB69B"/>
	<clipPath id="SVGID_4_">
		<use xlink:href="#SVGID_3_"  overflow="visible"/>
	</clipPath>
</g>
<g>
	<defs>
		<path id="SVGID_5_" d="M256.184,336.059c-11.859-1.552-21.631,0.004-24.278,11.741c-0.393,0.45-0.75,0.928-1.063,1.431
			c-3.301,5.297-1.24,12.271,4.541,18.323c3.968,6.055,9.936,6.604,17.519,7.151c12.041,3.71,24.354,5.485,28.616-1.351
			C284.341,368.832,278.5,338.979,256.184,336.059z"/>
	</defs>
	<use xlink:href="#SVGID_5_"  overflow="visible" fill-rule="evenodd" clip-rule="evenodd" fill="#FFFFFF"/>
	<clipPath id="SVGID_6_">
		<use xlink:href="#SVGID_5_"  overflow="visible"/>
	</clipPath>
	
		<ellipse transform="matrix(0.9909 -0.1347 0.1347 0.9909 -45.5696 37.9436)" clip-path="url(#SVGID_6_)" fill-rule="evenodd" clip-rule="evenodd" fill="#420C0C" cx="257.683" cy="355.81" rx="18.18" ry="20.105"/>
	<path clip-path="url(#SVGID_6_)" fill-rule="evenodd" clip-rule="evenodd" fill="#602B2B" d="M266.823,356.115
		c0.122,7.987-4.293,14.531-9.861,14.614c-5.566,0.086-10.175-6.322-10.295-14.31c-0.123-7.988,4.292-14.532,9.86-14.617
		C262.092,341.721,266.703,348.127,266.823,356.115z"/>
	
		<ellipse transform="matrix(0.9999 -0.0151 0.0151 0.9999 -5.3345 3.9407)" clip-path="url(#SVGID_6_)" fill-rule="evenodd" clip-rule="evenodd" cx="259.057" cy="356.268" rx="7.784" ry="11.169"/>
	
		<ellipse transform="matrix(0.9999 -0.015 0.015 0.9999 -5.1858 4.0065)" clip-path="url(#SVGID_6_)" fill-rule="evenodd" clip-rule="evenodd" fill="#FFFFFF" cx="265.1" cy="348.493" rx="3.98" ry="5.713"/>
</g>
<g>
	<defs>
		<path id="SVGID_7_" d="M409.975,359.834c7.731-6.341,10.489-13.648,6.07-19.196c-0.421-0.528-0.896-1.027-1.421-1.498
			c-3.539-12.299-13.23-11.292-29.203-10.491c-36.921,1.852-40.941,32.525-37.167,37.265c5.703,7.162,21.059,4.458,37.167,0.571
			C395.563,365.912,404.664,366.179,409.975,359.834z"/>
	</defs>
	<use xlink:href="#SVGID_7_"  overflow="visible" fill-rule="evenodd" clip-rule="evenodd" fill="#FFFFFF"/>
	<clipPath id="SVGID_8_">
		<use xlink:href="#SVGID_7_"  overflow="visible"/>
	</clipPath>
	
		<ellipse clip-path="url(#SVGID_8_)" fill-rule="evenodd" clip-rule="evenodd" fill="#420C0C" cx="383.943" cy="345.162" rx="23.125" ry="23.638"/>
	<path clip-path="url(#SVGID_8_)" fill-rule="evenodd" clip-rule="evenodd" fill="#602B2B" d="M397.557,344.146
		c0.146,9.643-5.831,17.551-13.353,17.663c-7.516,0.115-13.729-7.611-13.873-17.253c-0.148-9.643,5.826-17.551,13.349-17.666
		C391.197,326.778,397.41,334.503,397.557,344.146z"/>
	
		<ellipse transform="matrix(0.9999 -0.015 0.015 0.9999 -5.1458 5.8349)" clip-path="url(#SVGID_8_)" fill-rule="evenodd" clip-rule="evenodd" cx="385.636" cy="345.28" rx="9.779" ry="14.032"/>
	
		<ellipse transform="matrix(0.9999 -0.015 0.015 0.9999 -5.0008 5.951)" clip-path="url(#SVGID_8_)" fill-rule="evenodd" clip-rule="evenodd" fill="#FFFFFF" cx="393.228" cy="335.514" rx="5.001" ry="7.177"/>
</g>
<path fill-rule="evenodd" clip-rule="evenodd" fill="#E2B89C" d="M334.497,388.913c0,0-8.065-8.823-18.013-8.823
	c-9.948,0-18.013,8.823-18.013,8.823c0-6.732,8.064-12.188,18.013-12.188C326.431,376.726,334.497,382.181,334.497,388.913z"/>
<path fill-rule="evenodd" clip-rule="evenodd" fill="#FFFFFF" stroke="#D39797" stroke-miterlimit="10" d="M351.772,406.354
	c-1.244,1.176,0,3.979,0,3.979s-18.876,15.667-48.012,3.784l2.742-4.4C317.771,414.146,351.772,406.354,351.772,406.354z"/>
<path fill-rule="evenodd" clip-rule="evenodd" fill="#FFFFFF" d="M421.119,314.432c0.439,6.1-17.725-10.74-37.314-7.961
	c-19.589,2.779-34.139,15.988-34.139,15.988c-2.548-7.459-6.509-6.608,0.084-11.755c2.109-1.646,12.598-9.737,15.25-11.037
	c4.617-2.262,11.638-1.936,17.448-2.76c14.051-1.993,31.935,3.032,38.679,9.76C423.785,309.318,420.863,310.884,421.119,314.432z"/>
<path fill-rule="evenodd" clip-rule="evenodd" fill="#FFFFFF" d="M265.5,324.25c0,0-7.564-5.367-21.679-5.367
	c-14.117,0-20.635,15.631-20.635,6.654c0-8.978,12.046-20.332,25.561-16.255c8.031,2.423,14.523,4.603,16.753,7.218
	C267.169,318.457,265.5,320.408,265.5,324.25z"/>
<path fill="#FFFFFF" d="M454.842,329.271c0,0-0.859,20.124,1.221,26.394c0.777,2.348,9.307,1.951,9.307,1.951
	s4.742,1.235,6.143-0.926c4.053-6.255,8.502-20.736,10.369-27.953c2.787-10.771,5.039-33.122,4.787-44.244
	c-0.295-12.971-5.957-38.575-9.875-50.942c-3.953-12.479-16.143-35.945-23.43-46.818c-9.996-14.917-35.527-40.76-44.857-56.105
	c-1.939-3.19-6.064-13.647-6.064-13.647s-7.24,0.996-9.356,0c-8.513-4.002-24.004-28.978-24.004-28.978l1.517,12.298
	c0,0-14.013-18.115-16.713-25.168c-1.952-5.099-3.161-21.607-3.161-21.607s-6.523,22.027-12.695,21.348
	c-4.852-0.533-6.649-13.697-6.097-18.547c0.811-7.089,8.338-27.294,8.338-27.294s-12.743,6.208-15.927,9.595
	c-5.333,5.672-7.1,24.901-14.398,27.615c-3.581,1.332-13.646-6.883-13.646-6.883s2.378,7.891,2.516,10.615
	c0.292,5.729-0.79,17.456-3.007,22.746c-2.847,6.788-16.684,24.261-16.684,24.261l-1.022-9.099l-25.778,37.908l-1.516-10.614
	c0,0-5.22,13.871-7.583,18.196c-5.748,10.519-20.998,29.223-27.292,39.425c-7.617,12.348-22.652,37.756-26.031,51.864
	c-2.707,11.303-2.478,34.872-1.585,46.459c0.769,9.975,2.417,30.021,4.87,39.72c1.982,7.835,11.344,30.271,11.344,30.271
	l8.513-0.511l-2.418-13.163v-2.315c0,0-6.66-18.487-6.824-24.951c-0.132-5.128,3.326-15.163,5.695-19.712
	c0.148-0.285,0.802-0.999,0.802-0.999l14.731-19.546l1.517-0.685c0,0-7.226-6.163-9.636-8.213c-0.245-0.208-0.978-0.832-0.978-0.832
	s17.54-5.619,23.569-6.69c0.338-0.06,1.132-0.087,1.316-0.374c1.857-2.877-2.013-13.543-2.013-13.543s40.043,11.902,53.781,11.456
	c16.953-0.55,65.306-18.411,65.306-18.411l-14.588,4.764c0,0,42.661,4.378,56.881,5.834c0.563,0.059,2.256,0.231,2.256,0.231
	l-19.477,5.564l-1.752,0.501l51.553,17.676l1.52,0.521l-11.018,8.273l-1.098,0.824l31.826,40.941L454.842,329.271z"/>
<path fill-rule="evenodd" clip-rule="evenodd" fill="#F4F4F4" d="M286.167,245.139l-1.823-18.273l-1.408-14.108
	c0,0,9.23,11.149,12.265,8.885c7.396-5.521-12.265-34.823-12.265-34.823s8.756,17.071,13.121,14.763
	c8.982-4.748-9.89-39.42-9.89-39.42s6.362,23.698,12.305,21.762c5.14-1.675-2.487-21.479-2.487-21.479l-0.784-6.765l-4.497-21.061
	c0,0,6.219,17.841,10.812,16.214c3.965-1.405-1.558-16.753-1.558-16.753l-1.485-15.986c0,0,4.564,11.101,7.558,10.105
	c6.263-2.083,0-26.401,0-26.401s8.95,2.137,10.455,0c3.183-4.521-7.455-20.82-7.455-20.82s5.964,1.117,7.455,0
	c3.232-2.421,4.545-15.505,4.545-15.505L334.497,43.7c0,0-7.885,22.229-8.468,30c-0.3,3.99,4.908,13.131,2,15.88
	c-2.133,2.016-11.545-2.122-11.545-2.122s13.207,20.214,8.545,24.839c-3.07,3.046-16.313-5.759-16.313-5.759
	s7.827,20.277,7.768,27.396c-0.056,6.725-2.102,22.132-7.768,25.755c-1.713,1.095-8.051-1.136-8.051-1.136
	s13.127,25.515,8.051,32.025c-1.575,2.021-10.245,0-10.245,0s12.641,12.321,10.245,16.561c-1.662,2.942-13.517-0.161-13.517-0.161
	s7.157,13.854,6.314,18.72C300.458,231.8,286.167,245.139,286.167,245.139z"/>
<path fill="#F4F4F4" d="M344.226,238.659l-43.561,14.825l36.532-36.751c0,0-13.838,12.87-10.169,15.805
	c6.958,5.564,28.865-17.371,25-25.398c-2.801-5.816-25.682,2.686-25.682,2.686l25.682-29.151c0,0-12.294,16.169-7.803,18.313
	c9.405,4.49,27.333-29.894,19.549-36.825c-8.108-7.219-35.746,24.657-35.746,24.657l39.919-41.76c0,0-6.981,35.782-11.919,46.8
	c-0.914,2.04-6.197,5.525-5,7.413c2.293,3.613,16.919-2.611,16.919-2.611s-28.574,21.799-23.722,30.049
	c2.51,4.268,19.549-3.17,19.549-3.17s-42.525,6.834-39.746,17.31C325.331,245.757,344.226,238.659,344.226,238.659z"/>
<path fill="#F4F4F4" d="M373.333,236.567l-15.44,6.053c0,0,22.899-1.579,29.889,1.079c1.895,0.721,6.248,5.169,6.248,5.169
	l15.145,0.494l-7.053,12.03c0,0,17.396-1.717,21.742,1.57c2.707,2.047,4.627,12.762,4.627,12.762s13.107-2.252,14.539,1.101
	c1.346,3.157-8.729,10.603-8.729,10.603l8.729,16.04l13,16.399l8-4.528c0,0-19.096-13.615-19-20.625c0.043-3.227,9-9.255,9-9.255
	s-8.531,4.051-10,1.969c-1.545-2.189,5.482-9.21,5.482-9.21v-13.506c0,0-11.131,9.548-15.211,8.148
	c-6.08-2.086-10.438-23.498-10.438-23.498s-9.926,7.775-12.902,5.856c-2.805-1.807,0-13.34,0-13.34s-11.055,2.747-12.59,0
	c-0.875-1.563,3.75-6.104,3.75-6.104s-15.702,4.803-21.033,4.22C378.981,239.764,373.333,236.567,373.333,236.567z"/>
<path fill="#F4F4F4" d="M274.458,253.484c0,0-33.019-21.768-42.212-15.324c-3.999,2.803,0,19.534,0,19.534s-17.467-3.751-21.218,0
	c-3.763,3.763,0,21.285,0,21.285s-4.36,7.798-5,10.674c-0.848,3.809,0,15.607,0,15.607l-9,5.443v-17.996c0,0,3.515,5.513,5,4.665
	c5.042-2.877-5-22.678-5-22.678s5.322,4.052,7,3.126c3.087-1.704,2-13.962,2-13.962s-18-21.161-9-20.16s20.402,10.789,26.157,7.199
	c5.897-3.679,3.017-27.638,3.017-27.638s15.26,15.604,21.829,14.899c2.946-0.315,8.152-8.604,8.152-8.604L274.458,253.484z"/>
<path fill="#F4F4F4" d="M194.679,334.195c-4.551-9.889-6.363-43.076-6.363-43.076l6.193,9.686l-1.609-7.772l-5.147-24.854v-28.184
	c0,0,0.603,10.951,3.463,10.904c7.598-0.125,8.244-29.257,8.244-29.257s-0.232,8.197,1.907,8.377
	c10.958,0.923,16.797-40.657,16.797-40.657s-2.728,10.581,0,11.138c10.206,2.082,16.32-38.337,16.32-38.337l7.422-12.27
	l8.901-14.717c0,0-1.096,10.009,1.516,10.614c11.165,2.586,25.778-37.908,25.778-37.908s-1.19,8.515,1.022,9.099
	c1.847,0.487,4.489-6.182,4.489-6.182s7.418-9.052,9.105-12.539c2.321-4.796,5.417-15.203,5.753-20.521
	C298.822,72.179,295.2,55.7,295.2,55.7l11.582,8.279c0,0,2.218,2.487,3.163,2.261c4.293-1.026,6.147-11.78,8.816-15.295
	c4.643-6.113,21.509-21.915,21.509-21.915s-7.135,19.002-7.241,25.669c-0.083,5.195,5,20.172,5,20.172s3.026-5.088,4.035-6.785
	c2.165-3.641,8.66-14.563,8.66-14.563s1.209,16.509,3.161,21.607c2.701,7.054,9.729,28.043,16.713,25.168
	c2.864-1.179-1.517-12.298-1.517-12.298s15.491,24.975,24.004,28.978c2.116,0.995,9.356,0,9.356,0l39.014,54.462l31.365,51.819
	l6.783,25.857l5.596,21.335l-3.318,58.283c0,0-2.234,6.554-2.979,8.738c-1.273,3.735-5.094,14.943-5.094,14.943l-2.779-14.943
	l3-34.007c0,0-0.24,13.29,3,12.772c8.627-1.378-3-34.82-3-34.82s4.145,7.041,6,6.008c9.488-5.289-5.721-32.304-10-42.289
	c-3.701-8.638-20.518-31.491-20.518-31.491s10.41,18.2,14.518,14.984c8.537-6.685-23-36.773-23-36.773s11.168,9.514,13.273,6.48
	c3.764-5.421-19.141-18.176-19.141-18.176l-11.117-10.556l-14.871-20.949c0,0,12.418,10.398,14.689,7.021
	c4.809-7.149-25.492-23.185-25.492-23.185s9.6,0.652,10.135-1.868c2.213-10.426-35.173-24.088-35.173-24.088v14.04
	c0,0-10.649-18.027-15.44-23.04c-2.933-3.069-10.68-7.063-13.666-10.08c-4.77-4.818-15.875-21.985-15.875-21.985
	s-6.864,11.612-10.917,12.265c-2.485,0.4-8.718-5.038-8.718-5.038l-12.66,33.088c0,0-8.659,13.324-13.121,15.906
	c-1.86,1.077-8.477,1.44-8.477,1.44S264,149.7,256.184,154.169c-1.77,1.012-8.152,0-8.152,0s-12.131,39.387-21.829,48.475
	c-2.34,2.192-9.948,2.043-12.013,4.496c-4.486,5.332-1.537,21.438-5.161,27.389c-1.155,1.896-6.023,3.472-7,5.466
	c-2.065,4.216,2.967,15.188-0.06,18.776c-1.722,2.041-9.219-0.496-10.524,1.834c-1.851,3.306,5.004,10.347,5.584,14.091
	c1.382,8.918-3.581,27.047-2.52,36.009c1.125,9.512,11.52,36.539,11.52,36.539S196.486,338.123,194.679,334.195z"/>
<path fill-rule="evenodd" clip-rule="evenodd" fill="#E2E2E2" d="M271.529,551.012c0,0,10.537-0.267,13.94-1.065
	c1.804-0.424,6.871-2.779,6.871-2.779s-4.47,5.544-6.645,6.2C282.258,554.404,271.529,551.012,271.529,551.012z"/>
<path fill-rule="evenodd" clip-rule="evenodd" fill="#E2E2E2" d="M386.458,547.167c0,0,5.93,1.842,8.024,2.172
	c2.666,0.42,10.454,0.202,10.454,0.202s-8.557,3.995-11.573,3.326C391.177,552.382,386.458,547.167,386.458,547.167z"/>
<path fill-rule="evenodd" clip-rule="evenodd" fill="#FFFFFF" d="M431.648,637.164c0.594,2.431-3.01,1.821-11.928,4.003
	c-8.918,2.183-15.553,6.383-16.148,3.952c-0.594-2.431,6.154-6.17,15.072-8.353C427.563,634.585,431.053,634.733,431.648,637.164z"
	/>
<path fill-rule="evenodd" clip-rule="evenodd" fill="#FFFFFF" d="M442.172,640.012c0.594,2.431-3.01,1.821-11.928,4.003
	c-8.92,2.183-15.555,6.383-16.148,3.952c-0.596-2.431,6.152-6.17,15.07-8.353C438.086,637.433,441.576,637.581,442.172,640.012z"/>
<path fill-rule="evenodd" clip-rule="evenodd" fill="#FFFFFF" d="M253.121,634.064c-0.594,2.431,3.01,1.821,11.928,4.003
	c8.919,2.183,15.554,6.383,16.148,3.952s-6.153-6.17-15.071-8.353C257.207,631.485,253.716,631.634,253.121,634.064z"/>
<path fill-rule="evenodd" clip-rule="evenodd" fill="#FFFFFF" d="M244.121,637.164c-0.594,2.431,3.01,1.821,11.928,4.003
	c8.919,2.183,15.554,6.383,16.148,3.952s-6.153-6.17-15.071-8.353C248.207,634.585,244.716,634.733,244.121,637.164z"/>
<path fill-rule="evenodd" clip-rule="evenodd" fill="#DDB69B" d="M281.251,546.433c-0.374,1.817,5.949,3.388,2.209,2.618
	s-6.469-2.865-6.095-4.682c0.373-1.817,3.708-2.667,7.448-1.896C288.554,543.242,281.625,544.617,281.251,546.433z"/>
<path fill-rule="evenodd" clip-rule="evenodd" fill="#DDB69B" d="M398.51,544.607c0.465,2.26-8.84,4.676-4.187,3.719
	c4.652-0.956,8.046-3.564,7.582-5.823c-0.465-2.261-4.614-3.316-9.265-2.359C387.986,541.101,398.045,542.349,398.51,544.607z"/>
<path fill-rule="evenodd" clip-rule="evenodd" fill="#FFFFFF" d="M332.494,464.544c-4.065-1.888-5.838-5.716-7.427-9.439
	c-2.247-5.263-3.995-10.739-5.96-16.123c-0.085-0.235-0.211-0.457-0.322-0.69c-2.279,1.304-2.696,2.76-1.84,6.582
	c-0.525-0.182-0.958-0.29-1.356-0.474c-3.756-1.732-8.594-9.166-7.098-14.392c0.291-1.018,0.684-1.954,1.189-2.811
	c0.62-1.053,1.411-1.986,2.397-2.801c3.392-2.802,7.081,0.865,11.289,0.03c4.916-0.975,11.877,1.239,16.557-2.688
	c2.175,0.181,3.159-2.85,5.159-2.018c4.169,1.734,5.726,5.369,4.628,10.194c-0.931,4.093-3.057,7.584-5.794,10.719
	c-0.3,0.344-0.712,0.589-1.417,1.159c0.717-2.894,0.986-5.407-1.051-7.87c-0.111,0.984-0.231,1.727-0.272,2.474
	c-0.412,7.423-1.119,14.8-3.298,21.958c-0.718,2.359-1.779,4.484-3.813,5.998C333.542,464.416,333.018,464.48,332.494,464.544z"/>
<path fill-rule="evenodd" clip-rule="evenodd" fill="#F4F4F4" d="M310.333,427.334c-1.186-0.219-2.141,3.127-2.122,4.333
	c0.025,1.551,1.122,8.627,5.788,11.334c0.743,0.431,3.028,2.726,2.945,1.872c-0.361-3.697,2.389-6.539,2.389-6.539
	s4.562,14.181,6.667,18.667c1.052,2.243,4.2,7.1,6.667,7.333c1.937,0.184,4.792-3.596,5.667-5.333
	c2.835-5.639,2.968-25.418,3.5-25.001c1.563,1.225,0.666,7.793,0.666,7.793s6.584-5.543,7.552-14.459
	c0.235-2.169-1.667-6.039-3.801-5.584c-2.438,0.52-2.25,7.584-2.25,7.584s-2.488-2.712-3.061-2
	c-2.896,3.598-2.855,35.425-7.772,35.425c-4.417,0-13.5-28.021-13.5-28.021c-1.602,0-1.632,5.159-3.183,5.557
	c-1.891,0.484-5.122-3.639-5.484-5.557C310.655,432.911,312.161,427.672,310.333,427.334z"/>
</svg>
